<?xml version="1.0" encoding="UTF-8" standalone="no"?>
<svg
   xmlns:dc="http://purl.org/dc/elements/1.1/"
   xmlns:cc="http://creativecommons.org/ns#"
   xmlns:rdf="http://www.w3.org/1999/02/22-rdf-syntax-ns#"
   xmlns:svg="http://www.w3.org/2000/svg"
   xmlns="http://www.w3.org/2000/svg"
   xmlns:sodipodi="http://sodipodi.sourceforge.net/DTD/sodipodi-0.dtd"
   xmlns:inkscape="http://www.inkscape.org/namespaces/inkscape"
   sodipodi:docname="phone.svg"
   inkscape:version="1.0 (4035a4fb49, 2020-05-01)"
   id="svg1612"
   version="1.1"
   viewBox="0 0 5.2711349 5.4454236"
   height="5.4454236mm"
   width="5.2711349mm">
  <defs
     id="defs1606" />
  <sodipodi:namedview
     inkscape:window-maximized="0"
     inkscape:window-y="176"
     inkscape:window-x="176"
     inkscape:window-height="1193"
     inkscape:window-width="1836"
     showgrid="false"
     inkscape:document-rotation="0"
     inkscape:current-layer="layer1"
     inkscape:document-units="mm"
     inkscape:cy="25.428783"
     inkscape:cx="6.0334265"
     inkscape:zoom="3.959798"
     inkscape:pageshadow="2"
     inkscape:pageopacity="0.0"
     borderopacity="1.0"
     bordercolor="#666666"
     pagecolor="#ffffff"
     id="base" />
  <metadata
     id="metadata1609">
    <rdf:RDF>
      <cc:Work
         rdf:about="">
        <dc:format>image/svg+xml</dc:format>
        <dc:type
           rdf:resource="http://purl.org/dc/dcmitype/StillImage" />
        <dc:title></dc:title>
      </cc:Work>
    </rdf:RDF>
  </metadata>
  <g
     transform="translate(-93.91555,-93.494319)"
     id="layer1"
     inkscape:groupmode="layer"
     inkscape:label="Layer 1">
    <g
       transform="translate(-46.939464,60.567425)"
       id="g2195">
      <g
         id="g1078"
         transform="matrix(0.04428326,0.04411592,-0.04411592,0.04428326,149.59024,36.962336)">
        <path
           sodipodi:nodetypes="ccssssc"
           id="path1072"
           d="m -82.916672,65.481035 v 16.837977 c 0,0 -45.639968,-0.801806 -47.243588,-18.708864 -1.60362,-17.907058 1.60362,-16.036173 3.4745,-16.83798 1.87089,-0.801809 14.43256,-1.870887 16.30345,-0.267272 1.87088,1.603619 -0.80181,12.02713 0.26727,12.294399 1.06907,0.267269 3.94592,6.147199 27.198368,6.68174 z"
           style="fill:#000000;stroke:#000000;stroke-width:0.264583px;stroke-linecap:butt;stroke-linejoin:miter;stroke-opacity:1" />
        <path
           style="fill:#000000;stroke:#000000;stroke-width:0.264583px;stroke-linecap:butt;stroke-linejoin:miter;stroke-opacity:1"
           d="m -82.916672,65.481035 v 16.837977 c 0,0 45.639963,-0.801806 47.243583,-18.708864 1.60362,-17.907058 -1.60362,-16.036173 -3.4745,-16.83798 -1.87089,-0.801809 -14.432563,-1.870887 -16.303453,-0.267272 -1.87088,1.603619 0.80181,12.02713 -0.26727,12.294399 -1.06907,0.267269 -3.94592,6.147199 -27.19836,6.68174 z"
           id="path1074"
           sodipodi:nodetypes="ccssssc" />
      </g>
      <path
         style="fill:none;stroke:#000000;stroke-width:0.356852;stroke-miterlimit:4;stroke-dasharray:none;stroke-opacity:1"
         id="path1080"
         sodipodi:type="arc"
         sodipodi:cx="-71.373367"
         sodipodi:cy="129.54607"
         sodipodi:rx="1.4274956"
         sodipodi:ry="1.4274956"
         sodipodi:start="0"
         sodipodi:end="2.0943951"
         sodipodi:arc-type="arc"
         sodipodi:open="true"
         transform="rotate(-105)"
         d="m -69.945872,129.54607 a 1.4274956,1.4274956 0 0 1 -0.713748,1.23624 1.4274956,1.4274956 0 0 1 -1.427495,0" />
      <path
         transform="rotate(-105)"
         sodipodi:open="true"
         sodipodi:arc-type="arc"
         sodipodi:end="2.0943951"
         sodipodi:start="0"
         sodipodi:ry="2.3790119"
         sodipodi:rx="2.3790119"
         sodipodi:cy="129.49271"
         sodipodi:cx="-71.433548"
         sodipodi:type="arc"
         id="path1082"
         style="fill:none;stroke:#000000;stroke-width:0.356852;stroke-miterlimit:4;stroke-dasharray:none;stroke-opacity:1"
         d="m -69.054536,129.49271 a 2.3790119,2.3790119 0 0 1 -1.189506,2.06028 2.3790119,2.3790119 0 0 1 -2.379012,0" />
      <path
         sodipodi:open="true"
         transform="rotate(-105)"
         sodipodi:arc-type="arc"
         sodipodi:end="2.0943951"
         sodipodi:start="0"
         sodipodi:ry="0.23790118"
         sodipodi:rx="0.23790118"
         sodipodi:cy="129.66766"
         sodipodi:cx="-71.405952"
         sodipodi:type="arc"
         id="path1084"
         style="fill:none;stroke:#000000;stroke-width:0.356852;stroke-miterlimit:4;stroke-dasharray:none;stroke-opacity:1"
         d="m -71.168051,129.66766 a 0.23790118,0.23790118 0 0 1 -0.118951,0.20603 0.23790118,0.23790118 0 0 1 -0.237901,0" />
    </g>
  </g>
</svg>
